<svg width="408" height="74" viewBox="0 0 408 74" fill="none" xmlns="http://www.w3.org/2000/svg">
<path d="M85.652 12.34H103.783V17.134H91.007V26.7475H102.89V31.516H91.007V46H85.652V12.34ZM124.015 46V42.124C123.879 42.532 123.488 43.093 122.842 43.807C122.213 44.521 121.346 45.167 120.241 45.745C119.153 46.323 117.861 46.612 116.365 46.612C114.41 46.612 112.65 46.1445 111.086 45.2095C109.522 44.2745 108.29 42.974 107.389 41.308C106.488 39.642 106.037 37.721 106.037 35.545C106.037 33.369 106.488 31.448 107.389 29.782C108.29 28.116 109.522 26.8155 111.086 25.8805C112.65 24.9285 114.41 24.4525 116.365 24.4525C117.827 24.4525 119.093 24.7075 120.164 25.2175C121.235 25.7275 122.094 26.314 122.74 26.977C123.403 27.64 123.811 28.218 123.964 28.711V25.0645H129.37V46H124.015ZM111.418 35.545C111.418 36.888 111.715 38.061 112.31 39.064C112.905 40.067 113.679 40.8405 114.631 41.3845C115.6 41.9285 116.637 42.2005 117.742 42.2005C118.932 42.2005 119.986 41.92 120.904 41.359C121.839 40.798 122.57 40.0245 123.097 39.0385C123.641 38.0355 123.913 36.871 123.913 35.545C123.913 34.219 123.641 33.063 123.097 32.077C122.57 31.074 121.839 30.292 120.904 29.731C119.986 29.153 118.932 28.864 117.742 28.864C116.637 28.864 115.6 29.1445 114.631 29.7055C113.679 30.2495 112.905 31.023 112.31 32.026C111.715 33.029 111.418 34.202 111.418 35.545ZM147.501 24.4525C148.912 24.4525 150.281 24.7415 151.607 25.3195C152.933 25.8975 154.021 26.824 154.871 28.099C155.738 29.357 156.171 30.9975 156.171 33.0205V46H150.689V34.015C150.689 32.128 150.238 30.7425 149.337 29.8585C148.453 28.9575 147.306 28.507 145.895 28.507C144.96 28.507 144.067 28.7705 143.217 29.2975C142.367 29.8245 141.67 30.5385 141.126 31.4395C140.599 32.3405 140.336 33.3775 140.336 34.5505V46H134.879V25.0645H140.336V28.5835C140.489 28.0055 140.897 27.402 141.56 26.773C142.24 26.127 143.098 25.583 144.135 25.141C145.172 24.682 146.294 24.4525 147.501 24.4525ZM159.841 25.0645H163.768V16.471H169.174V25.0645H174.351V29.6545H169.174V38.605C169.174 39.727 169.361 40.5685 169.735 41.1295C170.126 41.6905 170.679 41.971 171.393 41.971C171.988 41.971 172.455 41.8605 172.795 41.6395C173.152 41.4185 173.365 41.2655 173.433 41.1805L175.447 45.133C175.345 45.235 175.048 45.405 174.555 45.643C174.062 45.881 173.424 46.102 172.642 46.306C171.86 46.51 170.968 46.612 169.965 46.612C168.197 46.612 166.718 46.085 165.528 45.031C164.355 43.977 163.768 42.328 163.768 40.084V29.6545H159.841V25.0645ZM195.634 46V42.124C195.498 42.532 195.107 43.093 194.461 43.807C193.832 44.521 192.965 45.167 191.86 45.745C190.772 46.323 189.48 46.612 187.984 46.612C186.029 46.612 184.269 46.1445 182.705 45.2095C181.141 44.2745 179.909 42.974 179.008 41.308C178.107 39.642 177.656 37.721 177.656 35.545C177.656 33.369 178.107 31.448 179.008 29.782C179.909 28.116 181.141 26.8155 182.705 25.8805C184.269 24.9285 186.029 24.4525 187.984 24.4525C189.446 24.4525 190.712 24.7075 191.783 25.2175C192.854 25.7275 193.713 26.314 194.359 26.977C195.022 27.64 195.43 28.218 195.583 28.711V25.0645H200.989V46H195.634ZM183.037 35.545C183.037 36.888 183.334 38.061 183.929 39.064C184.524 40.067 185.298 40.8405 186.25 41.3845C187.219 41.9285 188.256 42.2005 189.361 42.2005C190.551 42.2005 191.605 41.92 192.523 41.359C193.458 40.798 194.189 40.0245 194.716 39.0385C195.26 38.0355 195.532 36.871 195.532 35.545C195.532 34.219 195.26 33.063 194.716 32.077C194.189 31.074 193.458 30.292 192.523 29.731C191.605 29.153 190.551 28.864 189.361 28.864C188.256 28.864 187.219 29.1445 186.25 29.7055C185.298 30.2495 184.524 31.023 183.929 32.026C183.334 33.029 183.037 34.202 183.037 35.545ZM214.913 24.4525C216.086 24.4525 217.174 24.563 218.177 24.784C219.18 25.005 220.038 25.2685 220.752 25.5745C221.466 25.8805 221.959 26.1355 222.231 26.3395L220.242 29.7055C219.902 29.4165 219.29 29.085 218.406 28.711C217.539 28.337 216.562 28.15 215.474 28.15C214.386 28.15 213.468 28.3455 212.72 28.7365C211.972 29.1275 211.598 29.714 211.598 30.496C211.598 31.261 211.989 31.873 212.771 32.332C213.57 32.791 214.649 33.1735 216.009 33.4795C217.131 33.7345 218.202 34.0915 219.222 34.5505C220.242 34.9925 221.075 35.63 221.721 36.463C222.384 37.279 222.716 38.3755 222.716 39.7525C222.716 41.0615 222.435 42.158 221.874 43.042C221.33 43.909 220.599 44.606 219.681 45.133C218.763 45.66 217.743 46.034 216.621 46.255C215.516 46.493 214.403 46.612 213.281 46.612C211.904 46.612 210.671 46.476 209.583 46.204C208.512 45.932 207.62 45.6175 206.906 45.2605C206.192 44.8865 205.682 44.572 205.376 44.317L207.365 40.543C207.807 40.968 208.529 41.4185 209.532 41.8945C210.535 42.3535 211.657 42.583 212.898 42.583C214.224 42.583 215.287 42.328 216.086 41.818C216.885 41.308 217.284 40.628 217.284 39.778C217.284 39.149 217.089 38.639 216.698 38.248C216.324 37.857 215.805 37.5425 215.142 37.3045C214.479 37.0665 213.74 36.854 212.924 36.667C212.159 36.48 211.385 36.242 210.603 35.953C209.838 35.647 209.133 35.256 208.487 34.78C207.841 34.287 207.322 33.675 206.931 32.944C206.54 32.213 206.345 31.3545 206.345 30.3685C206.345 29.1105 206.744 28.0395 207.543 27.1555C208.342 26.2715 209.396 25.6 210.705 25.141C212.014 24.682 213.417 24.4525 214.913 24.4525ZM236.824 41.1295L243.454 25.0645H248.885L234.656 56.608H229.148L233.942 46L225.272 25.0645H230.78L236.824 41.1295ZM296.007 46H289.377L282.696 18.9955H283.69L276.984 46H270.354L263.086 12.34H269.206L274 38.9875H273.924L280.936 12.34H285.45L292.462 38.9875H292.36L297.18 12.34H303.3L296.007 46ZM310.406 36.82C310.44 37.925 310.703 38.9195 311.196 39.8035C311.689 40.6875 312.412 41.3845 313.364 41.8945C314.333 42.3875 315.514 42.634 316.908 42.634C318.115 42.634 319.152 42.4725 320.019 42.1495C320.903 41.8095 321.634 41.41 322.212 40.951C322.79 40.475 323.215 40.033 323.487 39.625L325.91 42.9145C325.383 43.6285 324.72 44.266 323.921 44.827C323.122 45.388 322.127 45.8215 320.937 46.1275C319.764 46.4505 318.311 46.612 316.577 46.612C314.299 46.612 312.318 46.1445 310.635 45.2095C308.952 44.2745 307.643 42.957 306.708 41.257C305.79 39.557 305.331 37.568 305.331 35.29C305.331 33.25 305.756 31.414 306.606 29.782C307.456 28.133 308.689 26.8325 310.304 25.8805C311.936 24.9285 313.891 24.4525 316.169 24.4525C318.294 24.4525 320.138 24.8775 321.702 25.7275C323.266 26.5775 324.473 27.8015 325.323 29.3995C326.19 30.9805 326.624 32.893 326.624 35.137C326.624 35.273 326.615 35.5535 326.598 35.9785C326.598 36.4035 326.581 36.684 326.547 36.82H310.406ZM321.524 32.842C321.507 32.298 321.32 31.6775 320.963 30.9805C320.623 30.2835 320.07 29.68 319.305 29.17C318.54 28.643 317.52 28.3795 316.245 28.3795C314.936 28.3795 313.874 28.6345 313.058 29.1445C312.242 29.6375 311.638 30.2325 311.247 30.9295C310.856 31.6095 310.627 32.247 310.559 32.842H321.524ZM347.887 46V42.124C347.751 42.532 347.36 43.093 346.714 43.807C346.085 44.521 345.218 45.167 344.113 45.745C343.025 46.323 341.733 46.612 340.237 46.612C338.282 46.612 336.522 46.1445 334.958 45.2095C333.394 44.2745 332.162 42.974 331.261 41.308C330.36 39.642 329.909 37.721 329.909 35.545C329.909 33.369 330.36 31.448 331.261 29.782C332.162 28.116 333.394 26.8155 334.958 25.8805C336.522 24.9285 338.282 24.4525 340.237 24.4525C341.699 24.4525 342.965 24.7075 344.036 25.2175C345.107 25.7275 345.966 26.314 346.612 26.977C347.275 27.64 347.683 28.218 347.836 28.711V25.0645H353.242V46H347.887ZM335.29 35.545C335.29 36.888 335.587 38.061 336.182 39.064C336.777 40.067 337.551 40.8405 338.503 41.3845C339.472 41.9285 340.509 42.2005 341.614 42.2005C342.804 42.2005 343.858 41.92 344.776 41.359C345.711 40.798 346.442 40.0245 346.969 39.0385C347.513 38.0355 347.785 36.871 347.785 35.545C347.785 34.219 347.513 33.063 346.969 32.077C346.442 31.074 345.711 30.292 344.776 29.731C343.858 29.153 342.804 28.864 341.614 28.864C340.509 28.864 339.472 29.1445 338.503 29.7055C337.551 30.2495 336.777 31.023 336.182 32.026C335.587 33.029 335.29 34.202 335.29 35.545ZM356.813 25.0645H362.652L368.951 41.002L375.249 25.0645H381.063L372.164 46H365.763L356.813 25.0645ZM388.699 36.82C388.733 37.925 388.996 38.9195 389.489 39.8035C389.982 40.6875 390.705 41.3845 391.657 41.8945C392.626 42.3875 393.807 42.634 395.201 42.634C396.408 42.634 397.445 42.4725 398.312 42.1495C399.196 41.8095 399.927 41.41 400.505 40.951C401.083 40.475 401.508 40.033 401.78 39.625L404.203 42.9145C403.676 43.6285 403.013 44.266 402.214 44.827C401.415 45.388 400.42 45.8215 399.23 46.1275C398.057 46.4505 396.604 46.612 394.87 46.612C392.592 46.612 390.611 46.1445 388.928 45.2095C387.245 44.2745 385.936 42.957 385.001 41.257C384.083 39.557 383.624 37.568 383.624 35.29C383.624 33.25 384.049 31.414 384.899 29.782C385.749 28.133 386.982 26.8325 388.597 25.8805C390.229 24.9285 392.184 24.4525 394.462 24.4525C396.587 24.4525 398.431 24.8775 399.995 25.7275C401.559 26.5775 402.766 27.8015 403.616 29.3995C404.483 30.9805 404.917 32.893 404.917 35.137C404.917 35.273 404.908 35.5535 404.891 35.9785C404.891 36.4035 404.874 36.684 404.84 36.82H388.699ZM399.817 32.842C399.8 32.298 399.613 31.6775 399.256 30.9805C398.916 30.2835 398.363 29.68 397.598 29.17C396.833 28.643 395.813 28.3795 394.538 28.3795C393.229 28.3795 392.167 28.6345 391.351 29.1445C390.535 29.6375 389.931 30.2325 389.54 30.9295C389.149 31.6095 388.92 32.247 388.852 32.842H399.817Z" fill="#AA96DA"/>
<rect x="37" y="50" width="6" height="6" transform="rotate(45 37 50)" fill="#AA96DA"/>
<path fill-rule="evenodd" clip-rule="evenodd" d="M46.1716 54L37 44.8284L27.8284 54L37 63.1716L46.1716 54ZM37 42L25 54L37 66L49 54L37 42Z" fill="#AA96DA"/>
<rect x="37" y="8" width="6" height="6" transform="rotate(45 37 8)" fill="#AA96DA"/>
<path fill-rule="evenodd" clip-rule="evenodd" d="M46.1716 12L37 2.82843L27.8284 12L37 21.1716L46.1716 12ZM37 0L25 12L37 24L49 12L37 0Z" fill="#AA96DA"/>
<path fill-rule="evenodd" clip-rule="evenodd" d="M54.1716 54L37 36.8284L19.8284 54L37 71.1716L54.1716 54ZM37 34L17 54L37 74L57 54L37 34Z" fill="#AA96DA"/>
<path fill-rule="evenodd" clip-rule="evenodd" d="M22.1144 33L16 26.8856L9.88561 33L16 39.1144L22.1144 33ZM16 25L8 33L16 41L24 33L16 25Z" fill="#AA96DA"/>
<path fill-rule="evenodd" clip-rule="evenodd" d="M64.0201 33L57.6 26.5799L51.1799 33L57.6 39.4201L64.0201 33ZM57.6 24.6L49.1999 33L57.6 41.4L66 33L57.6 24.6Z" fill="#AA96DA"/>
<path fill-rule="evenodd" clip-rule="evenodd" d="M29.7373 33L16 19.2627L2.26274 33L16 46.7373L29.7373 33ZM16 17L-3.19738e-06 33L16 49L32 33L16 17Z" fill="#AA96DA"/>
</svg>
